<?xml version="1.0" encoding="UTF-8"?>
<svg version="1.1" xmlns="http://www.w3.org/2000/svg" width="2189" height="1750">
<path d="M0 0 C9.33304429 6.8203016 16.75551793 15.5608318 19.26953125 27.06640625 C21.32443592 42.59235268 17.40595738 54.45433542 8.7109375 67.20703125 C6.93555495 69.08684807 5.16846127 70.68949191 3.20146656 72.35514832 C-2.59767519 77.40701373 -7.9666342 82.888208 -13.38752747 88.3371582 C-14.590812 89.54287404 -15.7943256 90.7483613 -16.99804705 91.95364094 C-19.60461877 94.56457119 -22.20957363 97.17710026 -24.81328583 99.79088211 C-29.05066374 104.04464158 -33.29154067 108.29490193 -37.53282166 112.54476929 C-43.69022226 118.71527272 -49.84600132 124.88738989 -56.00089455 131.06039429 C-65.73317272 140.82092056 -75.47125894 150.5756409 -85.21037292 160.3293457 C-88.54512224 163.66921895 -91.87984648 167.00911723 -95.21457195 170.34901428 C-96.04786662 171.18359498 -96.88116128 172.01817567 -97.73970729 172.87804669 C-107.21699374 182.37005528 -116.69339837 191.86294392 -126.16918945 201.35644531 C-127.03503954 202.22391014 -127.90088963 203.09137497 -128.79297759 203.98512661 C-142.82815136 218.04684347 -156.857704 232.11415757 -170.88564495 246.18308938 C-185.29869357 260.63789445 -199.71940857 275.08502052 -214.14682883 289.52548122 C-223.03994558 298.42718627 -231.92680177 307.33504969 -240.80567803 316.25095916 C-246.89141024 322.36099608 -252.98444157 328.46369043 -259.08323196 334.56069303 C-262.59957103 338.07645523 -266.11258309 341.5953799 -269.61684799 345.12318039 C-272.82885233 348.35662317 -276.05007489 351.58058312 -279.27867528 354.79745233 C-280.44094697 355.95873248 -281.59987717 357.12336943 -282.75496886 358.29179156 C-294.52741933 370.19255578 -305.71517136 378.63580354 -322.9140625 378.83203125 C-334.75093768 378.70973618 -344.69022131 375.49789032 -353.64453125 367.453125 C-363.80343599 356.79866393 -365.91368669 345.41247123 -365.6875 331.30859375 C-364.96511164 312.83404797 -351.01325402 301.7655434 -338.78344727 289.58349609 C-337.18908212 287.98805677 -335.59515033 286.39218428 -334.00161743 284.7959137 C-329.69008064 280.47954736 -325.37234844 276.1694285 -321.0533154 271.86056471 C-316.52540321 267.34146498 -312.002793 262.81706474 -307.47947693 258.29336548 C-299.88449866 250.69932246 -292.28569491 243.10912945 -284.68432617 235.52148438 C-276.87731314 227.72855882 -269.07381107 219.93213983 -261.27416992 212.13183594 C-260.79365193 211.65127799 -260.31313394 211.17072005 -259.8180548 210.67559974 C-259.33833565 210.19584023 -258.85861649 209.71608072 -258.36436039 209.22178304 C-249.01225073 199.86894704 -239.65628384 190.51997635 -230.29922366 181.17209291 C-227.609919 178.48491548 -224.92132193 175.79703181 -222.23288155 173.10898972 C-218.00237609 168.8794918 -213.76931843 164.65256436 -209.53430557 160.42757988 C-207.98390801 158.88009281 -206.43434323 157.33177086 -204.88569069 155.78253746 C-202.76513454 153.66148714 -200.64150994 151.54355566 -198.5171051 149.42636108 C-197.9109581 148.81866548 -197.3048111 148.21096987 -196.680296 147.58485925 C-193.01701526 143.94196503 -189.22008228 140.51409182 -185.31398755 137.13386703 C-182.57959796 134.72054957 -180.01010215 132.16641477 -177.4523468 129.56846619 C-176.63505821 128.74505079 -176.63505821 128.74505079 -175.80125874 127.90500075 C-174.00217672 126.09134412 -172.20681576 124.27404981 -170.41137695 122.45678711 C-169.11138528 121.145036 -167.81110992 119.83356598 -166.51057434 118.52235413 C-163.72233967 115.71072461 -160.93541822 112.89780209 -158.14931679 110.08405876 C-153.73565635 105.62802104 -149.31478799 101.17918219 -144.89213562 96.73207092 C-143.76933786 95.6029907 -143.76933786 95.6029907 -142.62385732 94.45110077 C-141.09388365 92.91262436 -139.56388615 91.37417164 -138.03386533 89.83574212 C-127.74766625 79.49275212 -117.46555018 69.14585141 -107.20629883 58.77612305 C-100.27144471 51.76669706 -93.32412559 44.76989389 -86.36226624 37.78728586 C-82.68552196 34.09860399 -79.01531057 30.40392216 -75.36028481 26.69370842 C-71.92061754 23.20231973 -68.46463846 19.7279259 -64.99590874 16.2654171 C-63.73253506 14.99854647 -62.47507727 13.72574136 -61.22437286 12.44636154 C-45.23219844 -3.89529192 -21.27998747 -13.60128649 0 0 Z " fill="#FFFFFF" transform="translate(591.4140625,688.54296875)"/>
<path d="M0 0 C9.3894897 8.58373665 13.9769327 18.67798172 15.21875 31.20703125 C15.68560627 42.00308247 11.99301445 53.62672247 5.32354522 62.13989198 C3.3948109 64.24053484 1.40700922 66.25529276 -0.62649536 68.25468445 C-1.38663055 69.02191403 -2.14676574 69.78914361 -2.92993534 70.57962257 C-5.46126899 73.12845385 -8.00995631 75.65915807 -10.55908203 78.19018555 C-12.38535753 80.02160299 -14.21056109 81.85408989 -16.03477478 83.68756104 C-20.46635209 88.13745831 -24.91118815 92.57387593 -29.36091681 97.00561484 C-32.97992375 100.61055839 -36.59379284 104.22058009 -40.20409775 107.83423805 C-40.7192369 108.34985464 -41.23437605 108.86547124 -41.76512548 109.39671258 C-42.81182819 110.4444417 -43.85851643 111.49218529 -44.90519033 112.5399432 C-54.14888897 121.79219782 -63.40512586 131.03180804 -72.66796875 140.26489258 C-81.63959649 149.20769824 -90.60028839 158.16128678 -99.54980469 167.1262207 C-109.31177118 176.90498158 -119.08011457 186.67729302 -128.85921562 196.43892127 C-129.90381773 197.48167915 -130.9484151 198.52444179 -131.99300766 199.56720924 C-132.50687351 200.080163 -133.02073936 200.59311676 -133.5501769 201.12161457 C-137.15635483 204.72220625 -140.7580867 208.32720839 -144.35815811 211.93390465 C-149.2126218 216.7969471 -154.0778211 221.64903102 -158.95021248 226.49411011 C-160.73254831 228.26958384 -162.51153499 230.04842729 -164.28682899 231.83094215 C-178.9730092 246.56994227 -191.14485083 257.94656443 -213 258 C-224.7523567 257.19791037 -234.87581093 251.25435809 -242.8046875 242.77734375 C-250.23263333 233.38006708 -254.22306723 221.98223681 -253 210 C-249.38761915 188.91837113 -233.45957298 176.30586275 -219.02832031 161.85131836 C-217.31393586 160.1306588 -215.59973803 158.40981327 -213.88571167 156.688797 C-208.76972648 151.55370841 -203.64954127 146.42282173 -198.52845967 141.29281721 C-196.59442775 139.35526645 -194.66070935 137.41740296 -192.72700621 135.47952409 C-184.18415213 126.91822715 -175.63995135 118.35827687 -167.0917244 109.80234432 C-165.00775453 107.7164651 -162.92379021 105.63058034 -160.83984375 103.54467773 C-160.3219951 103.02634534 -159.80414645 102.50801295 -159.27060542 101.97397352 C-150.87952395 93.57458901 -142.49700297 85.16671516 -134.11801496 76.75526827 C-125.48851211 68.09261223 -116.85141867 59.43758289 -108.20691752 50.78989321 C-103.36421891 45.94503849 -98.52480304 41.09700521 -93.6938858 36.24040031 C-89.14922682 31.67162861 -84.59426379 27.11329709 -80.03241348 22.56168938 C-78.36697292 20.8967422 -76.70490508 19.22841283 -75.04661942 17.55633926 C-54.02044312 -3.63474422 -28.3756475 -21.27012529 0 0 Z " fill="#FFFFFF" transform="translate(430,644)"/>
<path d="M0 0 C9.20875753 7.04111168 16.558477 16.12416372 18.6875 27.8125 C19.70185423 42.57883705 17.49157382 53.35296609 7.6875 64.8125 C2.71728196 70.15396612 -2.49916587 75.26265827 -7.66772461 80.41064453 C-9.23253346 81.97652761 -10.79690895 83.54284386 -12.36088562 85.10955811 C-16.59184702 89.34534832 -20.82900214 93.57489174 -25.06745982 97.80317926 C-29.51129096 102.23819673 -33.94981888 106.67851592 -38.38905334 111.11813354 C-45.8427952 118.57094019 -53.30036536 126.01990035 -60.76049805 133.46630859 C-68.42200329 141.11372639 -76.07999743 148.76463742 -83.73413086 156.41943359 C-84.20568786 156.89103055 -84.67724486 157.36262751 -85.16309147 157.84851529 C-85.63386557 158.31932974 -86.10463968 158.7901442 -86.58967966 159.27522576 C-95.76807889 168.45435137 -104.95033587 177.62961192 -114.13368535 186.80378485 C-116.77273701 189.44070947 -119.41108123 192.07834013 -122.04926872 194.7161293 C-126.20097984 198.86683274 -130.35524349 203.01496506 -134.51146126 207.1611557 C-136.03283254 208.67961696 -137.55337158 210.19891261 -139.07299805 211.71912003 C-141.15414274 213.80075906 -143.23835633 215.87927789 -145.323349 217.95706177 C-145.91782316 218.55308453 -146.51229731 219.14910729 -147.12478584 219.76319134 C-150.79720444 223.41479719 -154.59625692 226.86927255 -158.52439886 230.24455154 C-161.08217553 232.48741237 -163.43556131 234.87828568 -165.8125 237.3125 C-169.55002367 241.10109863 -173.35627166 244.74622507 -177.41796875 248.1875 C-178.74057564 249.3219422 -180.03307541 250.49202102 -181.30078125 251.6875 C-181.96464844 252.30625 -182.62851562 252.925 -183.3125 253.5625 C-183.89 254.11421875 -184.4675 254.6659375 -185.0625 255.234375 C-191.54756335 259.78292638 -198.00629247 260.33782079 -205.6875 260.25 C-207.08403809 260.23755249 -207.08403809 260.23755249 -208.50878906 260.22485352 C-220.79140255 259.92177884 -228.45061769 255.3292172 -237.25390625 246.96875 C-246.49381446 237.22992666 -248.81261523 226.18328091 -248.58984375 213.22265625 C-247.98446258 199.20251031 -240.05164947 190.24242068 -230.559021 180.79159546 C-229.79732581 180.02536916 -229.03563063 179.25914287 -228.25085378 178.46969759 C-225.71329788 175.91954491 -223.16871238 173.37652953 -220.62402344 170.83349609 C-218.79662331 169.00010789 -216.96963286 167.16631126 -215.14302063 165.33213806 C-210.70518208 160.87774464 -206.26185541 156.42886585 -201.81629124 151.98218392 C-198.20096396 148.3659038 -194.5872256 144.74804345 -190.97458649 141.12907791 C-180.71714641 130.85404263 -170.45554218 120.58319236 -160.18854961 110.31770198 C-159.63600109 109.76523337 -159.08345257 109.21276477 -158.51416016 108.64355469 C-157.96093131 108.0904076 -157.40770246 107.53726051 -156.8377091 106.96735139 C-147.87082863 98.00128395 -138.9139699 89.02527875 -129.96160361 80.04472141 C-120.75482006 70.80917613 -111.54056452 61.58114375 -102.31852555 52.3608309 C-97.14695716 47.18992514 -91.97848258 42.01601368 -86.81804657 36.83399582 C-81.96488604 31.96066756 -77.10140439 27.0978491 -72.23088646 22.24186897 C-70.44809421 20.46116536 -68.66869274 18.67705932 -66.89300728 16.88926888 C-64.46248891 14.44326168 -62.01985988 12.01000327 -59.57391357 9.57943726 C-58.87952738 8.87476393 -58.18514118 8.17009061 -57.46971297 7.44406354 C-41.61756429 -8.18969023 -19.31319222 -12.71772229 0 0 Z " fill="#FFFFFF" transform="translate(640.3125,855.1875)"/>
<path d="M0 0 C4.79769443 3.84458103 8.11116369 9.12227126 11.5 14.1875 C11.52578125 12.95773437 11.5515625 11.72796875 11.578125 10.4609375 C11.63443006 8.82809068 11.69177685 7.19527955 11.75 5.5625 C11.76417969 4.75425781 11.77835938 3.94601562 11.79296875 3.11328125 C12.01322841 -2.3051063 12.94161327 -5.49303243 16.5 -9.8125 C20.45827216 -13.29098159 24.01958521 -14.17175889 29.3046875 -14.09375 C34.28008355 -13.45633271 38.28269188 -11.30468414 41.4375 -7.4375 C43.5504848 -2.21718461 43.62043406 2.97725259 43.59765625 8.55273438 C43.59619598 9.26620026 43.59473572 9.97966614 43.5932312 10.7147522 C43.58943872 12.25991004 43.5833365 13.80506358 43.57516479 15.35020447 C43.56225178 17.82889673 43.55584399 20.30753442 43.55102539 22.78625488 C43.53773244 28.96401751 43.5139785 35.14173054 43.48962402 41.31945801 C43.46621347 47.34838141 43.44763573 53.37728875 43.4375 59.40625 C43.43604162 60.25780544 43.43458324 61.10936089 43.43308067 61.98672104 C43.4201667 74.12123432 43.65835841 86.21664274 44.12849426 98.34317017 C44.61560428 111.24514818 44.68745496 124.13921977 44.68530273 137.04882812 C44.68522091 139.73541919 44.69228503 142.42184171 44.70581055 145.10839844 C44.77259416 158.62833416 44.71680013 172.10158339 43.625 185.5859375 C43.54883957 186.53757782 43.47267914 187.48921814 43.39421082 188.46969604 C41.71522156 206.67682258 34.13896396 223.32209245 20.0390625 235.2734375 C-1.60201202 251.83742709 -28.33635671 256.72965695 -54.98583984 253.36474609 C-76.57403024 250.30877144 -95.9286412 242.24803567 -110.1328125 225.01953125 C-113.74825643 220.17483639 -115.69439919 215.25032465 -115.5 209.1875 C-113.83598876 204.47280148 -111.2426242 201.46229617 -107.5 198.1875 C-102.95459619 196.6723654 -98.88321596 196.33355059 -94.36328125 197.953125 C-88.48189451 200.95189311 -84.03989602 205.276684 -79.25 209.75390625 C-65.7728111 221.68045268 -49.31517351 224.00277646 -31.99707031 223.36230469 C-19.96935209 222.52031737 -8.92971646 217.15298738 -0.625 208.4375 C3.09533793 203.85175973 5.39125585 198.66865521 7.5 193.1875 C7.84748291 192.30255859 8.19496582 191.41761719 8.55297852 190.50585938 C9.63055211 186.73004595 9.75338414 183.2694202 9.6953125 179.3828125 C9.6924826 178.6588327 9.68965271 177.93485291 9.68673706 177.18893433 C9.67562087 174.8966151 9.65053312 172.60469937 9.625 170.3125 C9.6149591 168.75000568 9.60583519 167.18750518 9.59765625 165.625 C9.57570973 161.81234662 9.54124013 157.99999152 9.5 154.1875 C8.92862305 154.85354248 8.35724609 155.51958496 7.76855469 156.20581055 C-4.27404931 169.96359608 -19.19223388 178.00487893 -37.546875 179.96875 C-57.77335652 181.08800194 -78.92357558 176.64598521 -94.58032227 163.10693359 C-113.73849181 145.50212915 -121.30743825 120.62414064 -122.5 95.1875 C-123.5148478 65.09608275 -122.75888106 33.45516618 -101.83203125 9.640625 C-90.53446214 -2.24358506 -78.47334768 -9.92352814 -62.5 -13.8125 C-61.75492188 -14.00328125 -61.00984375 -14.1940625 -60.2421875 -14.390625 C-38.48856402 -17.7373363 -18.07353468 -12.17845599 0 0 Z M-68.5 24.1875 C-69.10199219 24.64253906 -69.70398437 25.09757813 -70.32421875 25.56640625 C-82.28152048 35.85774684 -86.79556106 54.7461654 -88.3190918 69.72143555 C-90.02396044 92.96148704 -88.95849031 116.54672288 -73.5625 135.25 C-63.927577 145.50807723 -51.01004942 150.89900039 -37 151.5625 C-22.09289678 150.93223644 -10.57740098 144.95160632 -0.5 134.1875 C10.26883673 119.91360292 11.89063906 102.83570769 11.8125 85.5 C11.80686035 84.18435059 11.8012207 82.86870117 11.79541016 81.51318359 C11.54058892 60.99881233 8.60212053 40.36870778 -6.44140625 25.234375 C-16.78618344 15.59814419 -28.2386158 13.56937866 -41.9453125 13.875 C-52.02898842 14.37981481 -60.68187701 17.88057238 -68.5 24.1875 Z " fill="#FFFFFF" transform="translate(1097.5,800.8125)"/>
<path d="M0 0 C1.37502622 1.16328264 2.72944966 2.35134337 4.0625 3.5625 C4.80757812 4.21605469 5.55265625 4.86960937 6.3203125 5.54296875 C19.57905731 17.88034316 28.23665081 36.27105526 29.21484375 54.38330078 C29.31489622 57.54846079 29.3603082 60.70831471 29.375 63.875 C29.38055908 64.88916992 29.38611816 65.90333984 29.3918457 66.94824219 C29.3034812 76.15929778 28.22880191 83.81304713 23.0625 91.5625 C20.62339768 92.78205116 19.06872874 92.68564886 16.34225464 92.68275452 C14.84882538 92.68481651 14.84882538 92.68481651 13.32522583 92.68692017 C12.22902924 92.68332489 11.13283264 92.67972961 10.00341797 92.67602539 C8.85220459 92.67617142 7.70099121 92.67631744 6.51489258 92.6764679 C2.69480531 92.67576904 -1.12523371 92.6679779 -4.9453125 92.66015625 C-7.58804294 92.65829197 -10.23077373 92.65686812 -12.87350464 92.65586853 C-19.12790623 92.65275748 -25.38229039 92.64454714 -31.6366843 92.63451904 C-38.75630259 92.62335088 -45.87592171 92.61784568 -52.99554658 92.61282361 C-67.64287339 92.60236435 -82.29018645 92.58476928 -96.9375 92.5625 C-96.86121795 96.37586822 -96.75175227 100.18761953 -96.63671875 104 C-96.60523743 105.60391602 -96.60523743 105.60391602 -96.57312012 107.24023438 C-96.12319761 120.84713926 -90.85801849 132.38711334 -81.359375 142.19140625 C-70.61090507 152.211592 -55.93248761 155.26899857 -41.58984375 154.9140625 C-26.99422772 153.50913689 -16.15110512 148.74102085 -5.4140625 138.78515625 C0.56702892 133.41726821 5.8180959 129.42734583 14.0625 129.5625 C18.72175911 131.17532046 21.70211259 133.20486171 24.0625 137.5625 C25.45535756 145.62024608 23.54161097 151.87552537 19.0625 158.5625 C8.76715102 172.89310229 -7.52764258 179.30824837 -24.3125 182.8125 C-50.96439755 186.89467577 -77.71851713 183.59766088 -100.6640625 168.8046875 C-119.24117018 155.07933303 -127.26444414 133.80181818 -130.6550293 111.68041992 C-134.90449804 79.8185864 -134.53572656 41.50734087 -114.5625 14.6875 C-113.38046711 13.28982597 -112.17059525 11.91533797 -110.9375 10.5625 C-110.21046875 9.74394531 -109.4834375 8.92539062 -108.734375 8.08203125 C-81.09330564 -21.38691527 -31.94889016 -23.80939821 0 0 Z M-83.6796875 27.1796875 C-94.45736086 38.55404866 -96.9375 51.14635059 -96.9375 66.5625 C-66.2475 66.5625 -35.5575 66.5625 -3.9375 66.5625 C-3.9375 49.97952551 -6.94098417 37.0143542 -18.48046875 24.82421875 C-37.59664627 7.22761019 -65.43766805 9.85262827 -83.6796875 27.1796875 Z " fill="#FFFFFF" transform="translate(907.9375,801.4375)"/>
<path d="M0 0 C1.15475893 0.9475593 2.30126522 1.90530554 3.4375 2.875 C4.01371094 3.30941406 4.58992188 3.74382813 5.18359375 4.19140625 C20.23577445 15.95825575 27.59526466 35.61440322 30.0234375 54.0078125 C30.90846258 62.27361282 30.61521523 70.07548271 29.1875 78.25 C29.07825195 78.91580078 28.96900391 79.58160156 28.85644531 80.26757812 C27.967704 84.90956029 26.33322274 88.15994486 23.4375 91.875 C20.99839768 93.09455116 19.44372874 92.99814886 16.71725464 92.99525452 C15.22382538 92.99731651 15.22382538 92.99731651 13.70022583 92.99942017 C12.60402924 92.99582489 11.50783264 92.99222961 10.37841797 92.98852539 C9.22720459 92.98867142 8.07599121 92.98881744 6.88989258 92.9889679 C3.06980531 92.98826904 -0.75023371 92.9804779 -4.5703125 92.97265625 C-7.21304294 92.97079197 -9.85577373 92.96936812 -12.49850464 92.96836853 C-18.75290623 92.96525748 -25.00729039 92.95704714 -31.2616843 92.94701904 C-38.38130259 92.93585088 -45.50092171 92.93034568 -52.62054658 92.92532361 C-67.26787339 92.91486435 -81.91518645 92.89726928 -96.5625 92.875 C-96.45530793 96.39386261 -96.32711634 99.91166757 -96.1953125 103.4296875 C-96.15047729 104.91408325 -96.15047729 104.91408325 -96.10473633 106.4284668 C-95.78549458 114.51704463 -94.34376423 120.64467562 -90.5625 127.875 C-89.76779297 129.46054687 -89.76779297 129.46054687 -88.95703125 131.078125 C-82.52390138 143.03167523 -74.30849301 148.81863695 -61.4609375 152.84765625 C-45.84967906 156.93089295 -29.98766427 155.42736532 -15.5625 148.125 C-11.2235717 145.5604991 -7.96024242 142.49407918 -4.5234375 138.83984375 C-0.31050923 134.61852319 4.55176207 130.92567912 10.5 129.75 C15.36101636 129.90431798 18.55986891 130.94898939 22.4375 133.875 C25.22886814 137.42765036 25.65072946 140.23660024 25.4375 144.625 C23.7153561 156.48471266 16.41842572 164.50136646 7.1640625 171.625 C-15.26110854 186.31999263 -45.08941098 187.1361512 -70.59765625 182.12890625 C-90.17206204 177.49773769 -106.7615939 167.08702995 -117.5625 149.875 C-122.91842035 140.45704928 -126.45479096 130.50408254 -128.5625 119.875 C-128.74055176 119.02832764 -128.91860352 118.18165527 -129.10205078 117.30932617 C-130.92715307 107.38300455 -130.86607307 97.50004191 -130.82324219 87.43725586 C-130.81253365 84.44689601 -130.82318237 81.4571384 -130.8359375 78.46679688 C-130.85778407 51.30249326 -125.99264759 26.50549412 -106.18359375 6.46875 C-77.54437837 -20.42253205 -31.68223909 -23.15240549 0 0 Z M-82.73046875 26.875 C-93.32536388 38.00659713 -96.5625 51.84968132 -96.5625 66.875 C-65.8725 66.875 -35.1825 66.875 -3.5625 66.875 C-3.5625 50.72089449 -5.82241508 40.61067822 -14.8125 27.625 C-23.93246369 18.50503631 -34.87422864 13.60190076 -47.7734375 12.83984375 C-61.08135409 13.0075906 -72.95760926 17.85931701 -82.73046875 26.875 Z " fill="#FFFFFF" transform="translate(1745.5625,801.125)"/>
<path d="M0 0 C13.4829939 11.52539043 19.61414439 26.78609633 21.3046875 44.125 C21.61515909 48.41515288 21.82215217 52.7025218 22 57 C22.04511719 58.0631543 22.09023437 59.12630859 22.13671875 60.22167969 C23.5690759 95.4208888 24.51096911 131.2667488 21.1875 166.375 C21.12965332 167.07665283 21.07180664 167.77830566 21.01220703 168.5012207 C20.38167669 174.13737552 18.18311924 178.08150127 13.9375 181.8125 C9.26368434 184.6770967 4.30538663 184.56440283 -1 184 C-5.16639288 182.69505431 -7.64078129 180.46601346 -10.3125 177 C-14.48015226 168.65315304 -14.29577572 158.38085031 -14.23046875 149.26171875 C-14.23001053 148.17905228 -14.22955231 147.0963858 -14.2290802 145.98091125 C-14.22607959 143.70104876 -14.2182598 141.4211879 -14.20581055 139.14135742 C-14.18774723 135.73413419 -14.18530024 132.3271877 -14.18554688 128.91992188 C-14.16474538 116.2781723 -13.83572254 103.68377894 -13.22924805 91.05737305 C-10.78353839 57.20861988 -10.78353839 57.20861988 -23.16796875 26.8203125 C-32.52907206 17.51908832 -43.73217061 16.59683559 -56.21899414 16.63427734 C-67.04867994 16.82178203 -76.08460179 18.53785679 -84.51171875 25.828125 C-86 27 -86 27 -88 27 C-88.27199219 27.58007812 -88.54398438 28.16015625 -88.82421875 28.7578125 C-89.99021079 30.9813322 -91.32427073 32.85666267 -92.8125 34.875 C-110.12641747 60.97256341 -104.80146522 100.26053086 -103.36303711 129.95214844 C-101.42319796 170.0350127 -101.42319796 170.0350127 -109 180 C-112.69989473 183.42917072 -115.5792349 184.29969749 -120.5 184.5 C-126.77513764 184.25308142 -129.96717262 182.14576223 -134.25 177.625 C-148.03604287 156.94593569 -140.15488304 113.4672326 -139.14605713 90.14794922 C-138.44460292 73.82895269 -137.90883999 57.53915856 -138.0078125 41.203125 C-138.0148822 39.9211322 -138.0219519 38.6391394 -138.02923584 37.31829834 C-138.07029141 31.13544787 -138.14162881 24.95448676 -138.25 18.77246094 C-138.27380597 16.53581118 -138.29726213 14.29915767 -138.3203125 12.0625 C-138.34731232 11.05664856 -138.37431213 10.05079712 -138.40213013 9.01446533 C-138.45072708 2.15885043 -137.37642181 -3.4534616 -132.51663208 -8.55810547 C-127.90713231 -12.58456966 -124.17572198 -13.30096428 -118.28125 -13.21484375 C-113.64473539 -12.7781857 -110.84988181 -10.92070529 -107.75 -7.5625 C-105.10809201 -3.69399188 -103.76741071 -0.95267857 -103.5859375 3.765625 C-103.52792969 5.09980469 -103.52792969 5.09980469 -103.46875 6.4609375 C-103.4378125 7.38132812 -103.406875 8.30171875 -103.375 9.25 C-103.31699219 10.65378906 -103.31699219 10.65378906 -103.2578125 12.0859375 C-103.16375156 14.39043054 -103.07810601 16.69492013 -103 19 C-102.59910156 18.2265625 -102.19820312 17.453125 -101.78515625 16.65625 C-93.60519716 1.66893267 -80.25944544 -7.36599911 -64.00390625 -12.2578125 C-41.45126403 -17.82998678 -18.39926874 -14.91243609 0 0 Z " fill="#FFFFFF" transform="translate(1333,800)"/>
<path d="M0 0 C3.56573064 1.79023253 5.60840531 3.93899516 7.75 7.3125 C8.29428626 10.47173604 8.21641734 13.57185258 8.140625 16.76953125 C8.13496521 17.67249435 8.12930542 18.57545746 8.12347412 19.50578308 C8.10114895 22.37940303 8.05096018 25.25175928 8 28.125 C7.97992999 30.0774559 7.9616801 32.02993142 7.9453125 33.98242188 C7.90129682 38.75959878 7.83229626 43.5358354 7.75 48.3125 C8.75377686 48.28631592 9.75755371 48.26013184 10.79174805 48.2331543 C14.52817352 48.14241832 18.26450235 48.08516738 22.00170898 48.0378418 C23.61678461 48.01275041 25.23174726 47.97866874 26.84643555 47.93530273 C29.17264706 47.87440714 31.49735359 47.84623876 33.82421875 47.82421875 C34.90107185 47.78550911 34.90107185 47.78550911 35.99967957 47.74601746 C39.90670203 47.74384864 41.55595606 48.15410588 44.62036133 50.65551758 C48.41373349 55.38820923 49.18654705 57.87720937 49.07421875 63.8046875 C48.60512264 67.43311765 47.09610893 69.56420097 44.75 72.3125 C44.36030029 72.85430908 43.97060059 73.39611816 43.5690918 73.9543457 C40.75900846 76.05238537 37.82117691 75.68157056 34.45703125 75.60546875 C33.39798836 75.59910149 33.39798836 75.59910149 32.31755066 75.59260559 C30.06547697 75.57583034 27.81430258 75.53818243 25.5625 75.5 C24.03451815 75.48495157 22.50652224 75.47126344 20.97851562 75.45898438 C17.23533128 75.42593089 13.49281804 75.37415832 9.75 75.3125 C9.81055466 92.02850613 9.88806871 108.74433449 9.98571491 125.46016121 C10.0306604 133.22179938 10.07007791 140.9833918 10.09643555 148.74511719 C10.11942577 155.51107071 10.15283515 162.27687928 10.19870156 169.04271781 C10.22262012 172.62444889 10.24135778 176.20603652 10.24761391 179.78784561 C10.25479719 183.78862171 10.28524377 187.78889927 10.31762695 191.78955078 C10.31619186 192.9742244 10.31475677 194.15889801 10.3132782 195.37947083 C10.38690663 203.27012806 10.38690663 203.27012806 13.75 210.3125 C19.14568858 214.43347898 25.63183044 213.75952542 32.125 213.8125 C39.65368411 213.87435539 45.8886699 214.0184188 52.75 217.3125 C55.51995445 220.2555766 55.97022783 222.83251689 56.1875 226.75 C55.98971102 231.33718279 54.94574085 233.88292446 51.75 237.3125 C39.32480182 245.86641442 21.43891853 245.14820717 7.01953125 242.62890625 C-2.22851959 240.356959 -10.97176275 236.60687282 -16.25 228.3125 C-22.31218119 217.45029522 -24.70158128 208.54809588 -24.59057617 196.08178711 C-24.59101425 194.78324799 -24.59145233 193.48470886 -24.59190369 192.14682007 C-24.59275894 188.61221463 -24.57521029 185.07791914 -24.55418181 181.54338527 C-24.53533584 177.83985798 -24.53365837 174.13632236 -24.53010559 170.43275452 C-24.52080826 163.43124952 -24.49622607 156.42988627 -24.46605712 149.42844349 C-24.4324408 141.45259039 -24.41600898 133.47673025 -24.40097082 125.50082386 C-24.36967422 109.10463314 -24.31695912 92.7085847 -24.25 76.3125 C-25.27915527 76.32627686 -26.30831055 76.34005371 -27.36865234 76.35424805 C-28.73274483 76.36539068 -30.09684009 76.37619648 -31.4609375 76.38671875 C-32.13761475 76.3966687 -32.81429199 76.40661865 -33.51147461 76.41687012 C-40.46586854 76.45708116 -44.79695455 75.40019826 -50.1875 70.8125 C-53.1283523 67.24783055 -53.7241158 64.0477974 -53.65625 59.44140625 C-52.89583073 55.45651683 -50.39535456 52.74384061 -47.25 50.3125 C-41.87151565 47.56072717 -37.80438405 46.91119993 -31.8125 47.125 C-30.71518555 47.14530273 -30.71518555 47.14530273 -29.59570312 47.16601562 C-27.81347578 47.20096126 -26.03163427 47.25475195 -24.25 47.3125 C-24.29713135 45.5953479 -24.29713135 45.5953479 -24.34521484 43.84350586 C-24.45426291 39.574101 -24.52285801 35.30481779 -24.57958984 31.03442383 C-24.60966233 29.19046288 -24.6505326 27.34664379 -24.70263672 25.50317383 C-24.77587858 22.84420709 -24.80955005 20.18713925 -24.8359375 17.52734375 C-24.86690521 16.71039536 -24.89787292 15.89344696 -24.92977905 15.05174255 C-24.93299202 9.51976697 -23.63863812 6.71514757 -19.82266235 2.70899963 C-13.85021481 -2.59444061 -7.08700681 -3.24052728 0 0 Z " fill="#FFFFFF" transform="translate(1533.25,741.6875)"/>
<path d="M0 0 C3.99526328 3.65524087 5.73813425 6.67288577 6.0625 11.984375 C5.90375663 17.10384858 4.85586991 20.10432219 1.3125 23.8125 C-4.40304987 27.58691973 -10.15868883 28.26382914 -16.875 28.5 C-25.88069018 28.96680871 -32.75897905 29.66826325 -40.2734375 34.87890625 C-42 36 -42 36 -45 37 C-46.06441643 38.82033952 -46.06441643 38.82033952 -47 41 C-47.97495491 42.52353678 -48.95446068 44.044167 -49.9375 45.5625 C-57.52671432 58.16799989 -57.16761547 72.47381591 -57.125 86.75 C-57.12886719 87.99910156 -57.13273437 89.24820313 -57.13671875 90.53515625 C-57.12902696 98.18848418 -56.89013068 105.80187016 -56.50390625 113.4453125 C-55.94985778 124.61001987 -55.81383641 135.75820842 -55.81469727 146.93554688 C-55.81247749 150.15768028 -55.79412362 153.37948762 -55.77539062 156.6015625 C-55.69661683 185.1713349 -55.69661683 185.1713349 -62 192 C-67.00403164 195.57430831 -72.06548626 195.69703913 -78 195 C-83.19010925 193.23732139 -85.82359651 190.41167151 -89 186 C-90.83342723 182.22041582 -91.24147985 179.24510982 -91.21118164 175.06176758 C-91.20780289 173.88475784 -91.20442413 172.70774811 -91.20094299 171.49507141 C-91.18748337 170.22439316 -91.17402374 168.9537149 -91.16015625 167.64453125 C-91.15386514 166.3014927 -91.148632 164.95844882 -91.14439392 163.61540222 C-91.13109404 160.06610651 -91.10673436 156.51698299 -91.07904053 152.96777344 C-91.03088838 146.69342405 -90.99711053 140.41901507 -90.97265625 134.14453125 C-90.96970362 133.45420744 -90.96675098 132.76388363 -90.96370888 132.05264091 C-90.92728544 122.00752013 -91.17224853 111.99934623 -91.62533569 101.96374512 C-92.19298614 88.72609115 -92.18731773 75.48446631 -92.18530273 62.23706055 C-92.18519998 58.52196349 -92.19902747 54.80705265 -92.21607494 51.09200001 C-92.22729834 48.16364217 -92.22921906 45.23532865 -92.22869301 42.30695152 C-92.23040095 40.28720547 -92.24113548 38.26747319 -92.25224304 36.24775696 C-92.18653332 9.41528239 -92.18653332 9.41528239 -85 2 C-80.83678753 -1.62334452 -76.67667169 -2.66235119 -71.20703125 -2.3828125 C-66.25307874 -1.52354286 -63.06215012 0.82302284 -59.6875 4.5625 C-57.39611879 9.23012838 -56.69265553 13.8779946 -56 19 C-55.47792969 18.28714844 -54.95585938 17.57429687 -54.41796875 16.83984375 C-43.21606969 2.26364234 -18.27301855 -11.20914332 0 0 Z " fill="#FFFFFF" transform="translate(1911,789)"/>
<path d="M0 0 C6.01035036 5.58103962 7.30362821 11.1569831 7.859375 19.02734375 C7.93444275 19.94571518 8.0095105 20.86408661 8.08685303 21.81028748 C8.84388316 31.87068713 8.92766966 41.91641538 8.875 52 C8.87322754 53.00296112 8.87145508 54.00592224 8.86962891 55.03927612 C8.82844408 75.4132932 8.11471782 95.75708257 7.33251953 116.11401367 C6.87922466 128.24461265 6.54801175 140.34827308 6.6328125 152.48828125 C6.6398822 153.58755447 6.6469519 154.6868277 6.65423584 155.81941223 C6.69454186 160.96415673 6.76482568 166.10653437 6.875 171.25024414 C6.89872543 173.06005484 6.92217962 174.86986913 6.9453125 176.6796875 C6.97231232 177.48614212 6.99931213 178.29259674 7.02713013 179.12348938 C7.07401069 184.38440088 6.07619129 187.24299943 2.625 191.4375 C-1.11431515 194.90320672 -3.96885719 195.72139948 -8.9375 195.875 C-15.00614074 195.62042914 -17.60667507 194.04132959 -22.0625 190 C-35.00750124 173.11874447 -27.34526274 128.92962441 -26.52078247 108.73327637 C-25.80824793 91.09726337 -25.28479588 73.49736025 -25.34765625 55.84765625 C-25.34991589 55.12535513 -25.35217552 54.40305401 -25.35450363 53.65886497 C-25.37855828 46.58834264 -25.42324299 39.51848092 -25.51323795 32.44847775 C-25.55130557 29.22094859 -25.57223421 25.99327517 -25.59765625 22.765625 C-25.61949478 21.60261368 -25.64133331 20.43960236 -25.66383362 19.24134827 C-25.70381394 12.72614229 -25.47391333 7.83500654 -20.875 2.79296875 C-14.49869174 -2.17191711 -7.48461175 -3.46509803 0 0 Z " fill="#FFFFFF" transform="translate(1433.375,788.5625)"/>
<path d="M0 0 C3.90232363 2.92674272 6.26682139 6.19759996 7.265625 10.93359375 C7.8664395 17.61765503 8.46447886 24.33512193 4.265625 29.93359375 C-2.55397492 36.45668932 -8.04705809 37.45171934 -17.27734375 37.31640625 C-23.55861757 36.62085276 -26.98478291 33.81776985 -31.171875 29.30859375 C-33.84538472 25.24485898 -33.92339656 21.89265639 -33.984375 17.12109375 C-34.02304688 15.31705078 -34.02304688 15.31705078 -34.0625 13.4765625 C-33.56543235 8.1094154 -31.59106976 4.17620331 -27.484375 0.68359375 C-19.12570319 -6.02441598 -8.80024642 -5.41096233 0 0 Z " fill="#FFFFFF" transform="translate(1437.734375,725.06640625)"/>
<path d="M0 0 C1.98 0 3.96 0 6 0 C7.96630859 2.11132812 7.96630859 2.11132812 9.6484375 5.03125 C10.26074219 6.06894531 10.87304688 7.10664062 11.50390625 8.17578125 C12.12136719 9.27277344 12.73882813 10.36976563 13.375 11.5 C14.01566406 12.59699219 14.65632813 13.69398438 15.31640625 14.82421875 C16.89783498 17.53861134 18.45760044 20.26330091 20 23 C22.44654882 20.75412014 24.02923549 18.46954901 25.6640625 15.5859375 C26.14617187 14.74289062 26.62828125 13.89984375 27.125 13.03125 C27.62 12.1546875 28.115 11.278125 28.625 10.375 C29.61587956 8.63206827 30.60800066 6.88984159 31.6015625 5.1484375 C32.25632568 3.99093994 32.25632568 3.99093994 32.92431641 2.81005859 C34 1 34 1 35 0 C36.98 0 38.96 0 41 0 C41 12.54 41 25.08 41 38 C39.02 38 37.04 38 35 38 C34.67 30.08 34.34 22.16 34 14 C30.58409372 20.24159465 30.58409372 20.24159465 27.21020508 26.50585938 C26.77603271 27.27736328 26.34186035 28.04886719 25.89453125 28.84375 C25.45987549 29.63974609 25.02521973 30.43574219 24.57739258 31.25585938 C23 33 23 33 20.5 33.50585938 C18 33 18 33 16.42260742 31.34765625 C15.77062378 30.21650391 15.77062378 30.21650391 15.10546875 29.0625 C14.67129639 28.33160156 14.23712402 27.60070312 13.78979492 26.84765625 C13.2610376 25.90792969 12.73228027 24.96820312 12.1875 24 C10.475625 21.03 8.76375 18.06 7 15 C6.67 22.59 6.34 30.18 6 38 C4.02 38 2.04 38 0 38 C0 25.46 0 12.92 0 0 Z " fill="#FFFFFF" transform="translate(1971,724)"/>
<path d="M0 0 C10.56 0 21.12 0 32 0 C32 1.65 32 3.3 32 5 C28.04 5 24.08 5 20 5 C20 15.89 20 26.78 20 38 C17.69 38 15.38 38 13 38 C13 27.11 13 16.22 13 5 C8.71 5 4.42 5 0 5 C0 3.35 0 1.7 0 0 Z " fill="#FFFFFF" transform="translate(1934,724)"/>
</svg>
